<?xml version="1.0" encoding="UTF-8" standalone="no"?>
<!-- Uploaded to: SVG Repo, www.svgrepo.com, Generator: SVG Repo Mixer Tools -->

<svg
   width="800px"
   height="800px"
   viewBox="0 0 24 24"
   fill="none"
   version="1.1"
   id="svg2"
   sodipodi:docname="ArticleDB.svg"
   inkscape:version="1.4 (86a8ad7, 2024-10-11)"
   xmlns:inkscape="http://www.inkscape.org/namespaces/inkscape"
   xmlns:sodipodi="http://sodipodi.sourceforge.net/DTD/sodipodi-0.dtd"
   xmlns="http://www.w3.org/2000/svg"
   xmlns:svg="http://www.w3.org/2000/svg">
  <defs
     id="defs2" />
  <sodipodi:namedview
     id="namedview2"
     pagecolor="#ffffff"
     bordercolor="#000000"
     borderopacity="0.25"
     inkscape:showpageshadow="2"
     inkscape:pageopacity="0.0"
     inkscape:pagecheckerboard="0"
     inkscape:deskcolor="#d1d1d1"
     inkscape:zoom="1.00875"
     inkscape:cx="496.15861"
     inkscape:cy="400"
     inkscape:window-width="1920"
     inkscape:window-height="1009"
     inkscape:window-x="-8"
     inkscape:window-y="-8"
     inkscape:window-maximized="1"
     inkscape:current-layer="svg2" />
  <path
     opacity="0.5"
     d="M3.46447 3.46447C4.92893 2 7.28595 2 12 2C16.714 2 19.0711 2 20.5355 3.46447C22 4.92893 22 7.28596 22 12C22 16.714 22 19.0711 20.5355 20.5355C19.0711 22 16.714 22 12 22C7.28595 22 4.92893 22 3.46447 20.5355C2 19.0711 2 16.714 2 12C2 7.28596 2 4.92893 3.46447 3.46447Z"
     fill="#1C274C"
     id="path1"
     style="opacity:1;fill:#a6abbf;fill-opacity:1" />
  <path
     d="M 5.1296119,6.1931186 V 10.737635"
     stroke="#000000"
     stroke-width="1.88624"
     stroke-linecap="round"
     stroke-linejoin="round"
     id="path1-7" />
  <path
     d="M 6.4507521,10.737635 H 3.8084718"
     stroke="#000000"
     stroke-width="1.88624"
     stroke-linecap="round"
     stroke-linejoin="round"
     id="path2" />
  <path
     d="M 6.4507521,17.806881 H 3.8084718"
     stroke="#000000"
     stroke-width="1.88624"
     stroke-linecap="round"
     stroke-linejoin="round"
     id="path3" />
  <path
     d="m 3.8084718,14.272208 c 0,0 1.3211401,-1.514839 2.2019002,4.9e-5 0.8807601,1.514839 -2.2019002,3.534624 -2.2019002,3.534624"
     stroke="#000000"
     stroke-width="1.88624"
     stroke-linecap="round"
     stroke-linejoin="round"
     id="path4" />
  <path
     d="M 5.1296119,6.1931186 3.8084718,7.203011"
     stroke="#000000"
     stroke-width="1.88624"
     stroke-linecap="round"
     stroke-linejoin="round"
     id="path7" />
  <path
     d="m 10.414172,16.292042 h 9.688361"
     stroke="#000000"
     stroke-width="1.88624"
     stroke-linecap="round"
     stroke-linejoin="round"
     id="path8" />
  <path
     d="m 10.414172,9.2227959 h 9.688361"
     stroke="#000000"
     stroke-width="1.88624"
     stroke-linecap="round"
     stroke-linejoin="round"
     id="path10" />
  <path
     style="fill:#1c274c;fill-opacity:1;stroke-width:0.991326;paint-order:fill markers stroke"
     d="m 120.18287,388.03857 c -13.98948,-3.37746 -23.850652,-15.85137 -23.850652,-30.16992 0,-8.44244 2.328461,-14.27603 8.271882,-20.72387 6.53092,-7.08521 12.76583,-9.61874 25.23781,-10.25527 l 10.4307,-0.53237 v -29.2078 c 0,-27.42626 -0.10581,-29.16455 -1.73482,-28.49857 -11.39307,4.65775 -24.58529,1.86514 -33.55316,-7.10274 -10.576243,-10.57624 -11.615723,-28.96731 -2.27758,-40.2961 1.68478,-2.04392 11.60693,-10.25068 22.04922,-18.23722 10.44229,-7.98655 20.99615,-16.17622 23.45303,-18.19927 18.20355,-14.98923 40.2788,-11.42258 50.75644,8.20061 l 2.27342,4.2578 0.27524,64.54305 0.27523,64.54305 10.4033,0.53095 c 8.52716,0.43521 11.36324,1.00062 15.72626,3.13524 6.33405,3.09897 12.85903,9.85976 15.70069,16.26812 2.81929,6.35794 2.81108,16.80932 -0.0182,23.18998 -2.87845,6.49147 -10.18743,13.98002 -16.37611,16.7784 l -5.16854,2.33711 -49.07063,0.17002 c -26.98885,0.0935 -50.75042,-0.23552 -52.8035,-0.7312 z"
     id="path23"
     transform="scale(0.03)" />
  <path
     style="fill:#1c274c;fill-opacity:1;stroke-width:0.991326;paint-order:fill markers stroke"
     d="m 121.35856,624.06313 c -9.66529,-1.70768 -18.14834,-8.4218 -22.574747,-17.86734 -3.71109,-7.91913 -3.625801,-18.19312 0.213967,-25.77448 3.45895,-6.82946 5.56791,-9.11957 13.02205,-14.14058 25.33982,-17.06858 51.62486,-43.63522 59.08023,-59.7132 4.34498,-9.37022 4.49343,-12.0687 0.96802,-17.59603 -1.65184,-2.58984 -3.57079,-4.70461 -4.26434,-4.6995 -2.44455,0.018 -11.25371,5.84132 -18.08532,11.95528 -8.94792,8.00795 -13.8218,10.16543 -22.97661,10.17084 -8.81666,0.005 -16.0122,-3.19243 -22.13771,-9.83782 -5.900717,-6.40152 -8.258203,-12.27689 -8.315431,-20.72387 -0.0857,-12.65011 6.786221,-22.55275 25.002261,-36.02895 24.27959,-17.96203 51.65718,-22.099 73.42534,-11.09515 20.36439,10.29424 36.89119,32.57736 40.78804,54.99458 1.41983,8.16782 0.71704,22.32595 -1.5234,30.68997 -3.64611,13.6116 -11.41412,28.98406 -20.82896,41.21935 -2.46282,3.20061 -4.47785,6.01756 -4.47785,6.25989 0,0.24232 3.2342,0.65693 7.18711,0.92134 32.98017,2.20603 41.3181,45.06255 11.45029,58.85387 l -6.24582,2.88399 -47.58365,0.16495 c -26.171,0.0907 -49.62656,-0.19598 -52.12347,-0.63714 z"
     id="path24"
     transform="scale(0.03)" />
  <path
     style="fill:#1c274c;fill-opacity:1;stroke-width:0.991326;paint-order:fill markers stroke"
     d="m 341.7053,573.42443 c -16.70079,-3.32211 -27.78767,-19.23803 -24.81962,-35.63013 1.83553,-10.13738 9.71356,-19.7185 19.23194,-23.38956 4.74875,-1.8315 10.05002,-1.88925 173.42389,-1.88925 h 168.5254 l 5.17133,2.72605 c 20.21232,10.65489 23.76035,35.74631 7.16458,50.66734 -9.82083,8.82977 7.21231,8.04953 -179.37432,8.21662 -90.78067,0.0813 -166.97611,-0.23419 -169.3232,-0.70107 z"
     id="path25"
     transform="scale(0.03)" />
  <path
     style="fill:#1c274c;fill-opacity:1;stroke-width:0.991326;paint-order:fill markers stroke"
     d="m 339.03346,337.15697 c -6.62954,-2.10645 -9.9462,-4.25682 -14.67111,-9.51206 -11.1166,-12.36433 -10.61213,-29.91227 1.19911,-41.71106 10.31138,-10.3005 -8.08693,-9.31166 179.51909,-9.64845 118.53748,-0.2128 165.71496,0.0151 170.01239,0.82138 24.74196,4.6419 34.29066,34.1249 16.81012,51.90368 -2.08499,2.12055 -6.27411,5.02018 -9.30918,6.44361 l -5.51829,2.58806 -167.03842,0.18738 c -132.77419,0.14895 -167.8518,-0.0711 -171.00371,-1.07254 z"
     id="path26"
     transform="scale(0.03)" />
</svg>
